<svg id="Capa_1" data-name="Capa 1" xmlns="http://www.w3.org/2000/svg" viewBox="0 0 365.25 779.78"><title>KRAKEN</title><g id="HATCH"><path d="M346.31,590.27c-5.61,9.43-9.78,18.79-17.24,25.14l-1.36-.61c.2-2.41,0-5,.67-7.22q5.3-17.08,11.05-34a16.3,16.3,0,0,0,.31-10.42c-6.14-21.7-13.13-43.19-17.66-65.31-3.89-19-5.29-38.74-7.06-58.23-3.38-37.1-5-74.33-5-111.63a11.41,11.41,0,0,0-.15-1.31h-8c0,.55-.15,1.42-.15,2.29A1299.76,1299.76,0,0,1,292,485.55c-2.47,20.28-8.42,39.53-14.25,58.81-2.11,7-4.27,14-6.14,21.09a11.46,11.46,0,0,0,.17,6c3.54,11.08,7.42,22,10.91,33.11A32.09,32.09,0,0,1,283.73,615c-8.68-5.74-12.49-15.61-18.92-23.84-.76,7.86-2,15.69-2.21,23.56-1.33,45.49,6.74,89.36,19.12,132.42,2.92,10.18,6.1,20.28,9.08,30.44.72,2.47,1.1,5.07,1.63,7.6l-1.18.67c-1.66-2.25-3.49-4.36-4.94-6.76-9.82-16.25-17-34-23.22-52.18a366.71,366.71,0,0,1-19.83-105.78c-.7-19.22,2.44-37.82,7.67-56a16.58,16.58,0,0,0-.42-10.82c-10.72-30.3-17.27-61.61-17-94.3.09-11.27,1.67-22.52,2.6-33.77.13-1.6.41-3.18.8-6-4.29,5.79-7.91,10.6-11.45,15.47-12.66,17.4-28.77,30.1-45.67,41.78C167,486.35,155.43,496.68,148.29,512c-8.89,19-12,38.74-4.84,59.26C150,590,164.57,597.09,181.7,590.34a45.61,45.61,0,0,0,23.87-21.52c5.59-10.43,5.92-21.87,2.63-33.19-2.62-9-11.21-12.81-18.89-8.64-2.08,1.14-3.38,4-5.09,6-.84,1-1.81,1.83-2.72,2.73-.69-1.32-1.86-2.59-2-4-.46-4.77,1.67-8.43,4.84-11.36,12.31-11.41,29.82-6.95,35.76,9.53,5.57,15.42,4.29,30.91-2.26,45.57-9.2,20.58-24.33,32.51-45,34.93-21.56,2.52-41.23-14.38-46.94-41-7.59-35.36,1.87-65.61,24.8-90.67a177.62,177.62,0,0,1,25.16-22.16c23.24-17.34,40.72-40.56,56.2-65.94,7.13-11.68,14-23.55,21-35.34l-.73-.77c-1.87,1.54-3.72,3.11-5.61,4.62-15.45,12.33-32.22,21-51.69,19.76-26-1.65-47.54-13.37-58.8-40.45-9.78-23.5-8.23-47.27,6.17-68.88a5,5,0,0,0,.74-3.53c-5.25-19.05-2.51-37.64,2.73-56,4-13.93,8.78-27.58,12.52-41.58a47.93,47.93,0,0,0,1.43-17.71c-1.33-10.76-12.49-15.73-20.69-9.82-2.61,1.88-4.87,4.33-7.34,6.45a12.33,12.33,0,0,1-3.74,2.63,5.15,5.15,0,0,1-4.1-.35c-.54-.36-.4-2.78,0-4,3.58-10.69,16.33-20.47,25.67-19.84,10.08.68,20.59,10.89,23.46,22.69,1.91,7.84,1.2,15.65-.68,23.26-3.54,14.37-7.69,28.56-11.16,43-3.09,12.78-4.21,25.8-1.29,38.9.15.7.45,1.37.69,2.11,5.56-1.06,11-2.37,16.42-3.07,15.08-1.93,27.39,4.31,37.26,16.67,4.58,5.76,5,14.49,1.53,20.72-2,3.61-5,5.87-8.79,5.24C205,295,203,293.1,201,291.9l.52-1.38a17.91,17.91,0,0,1,2.21-.84c6.06-1.38,8.18-5,5.71-11.3-1.24-3.14-3.4-6.55-6-8.21-12.15-7.8-24.84-8.41-38.3-2,1.09,2.42,1.93,4.56,3,6.58,9.24,17.69,22.07,30.15,40.76,33.44,15.34,2.7,29.94-1.1,44.06-7.54a108.9,108.9,0,0,0,13.86-7.54,8.36,8.36,0,0,0,3.17-5.45c.15-1.26-1.75-3.32-3.15-4.2-6.37-4-9-16.51-4.68-25.15,1.56-3.12,2.46-6,1.39-9.32a9.16,9.16,0,0,0-2.64-3.91c-1.92-1.64-4.18-2.77-6.18-4.31-4.09-3.12-6-7.28-5.83-13q1.09-29.62,1.67-59.26c.11-5.56-.59-11.13-.7-16.71a20.77,20.77,0,0,0-5.68-14.05c-5.7-6.25-11.56-12.33-17.13-18.72-10.68-12.25-11.15-17.89-2.43-32,11.93-19.33,27.35-35.06,43-50.49,8.32-8.2,17.08-15.85,25.67-23.72,1.14-1,2.44-1.9,3.63-2.9,6.14-5.14,12.28-4.94,18.28.18,25.26,21.53,49.38,44.43,69.16,72.41a97.29,97.29,0,0,1,6.89,12.25c3.13,6.15,2.83,12.21-1.38,17.63-3.53,4.57-7.3,8.91-11,13.29a36.24,36.24,0,0,1-4.47,4.62c-10.12,8.27-13.66,19.53-13.15,33.15.78,20.5.72,41,1.78,61.52.48,9.31-3,14.76-9.81,18.86-5.81,3.51-6.73,7.59-3.64,14,3.61,7.48,3,14.86-1,21.87a11.9,11.9,0,0,1-4.25,4c-3.24,1.94-4,6.64-.83,8.57,22.62,13.59,46,23.35,71.85,12,14.9-6.51,24.24-19.75,31.62-36.07-3.55-1.25-6.76-2.81-10.11-3.48A37.94,37.94,0,0,0,409.9,269a15.23,15.23,0,0,0-8.19,12.63c-.38,5,.91,6.84,5.34,7.87,1.16.26,2.29.64,3.43,1l.45,1.5c-2.1,1.2-4.12,3.11-6.32,3.43-3.56.52-6.55-1.49-8.58-4.9-3.47-5.81-3.25-15.11,1.12-20.78,8.43-11,19.17-17.38,32.29-17.18,7.1.11,14.18,1.81,21.79,2.87a56.19,56.19,0,0,0,1.53-25.93c-2.45-13.39-6-26.53-8.94-39.82-2.18-9.93-4.82-19.82-6-29.91-1.36-11.83,3.28-21.41,11.95-28.51,7.8-6.4,15.95-7,24.36-1.73a33.68,33.68,0,0,1,12.94,14.66c.77,1.68.32,4.07.43,6.13-1.88-.37-4-.23-5.58-1.22-2.32-1.47-4.23-3.74-6.32-5.66-4.92-4.51-10.12-6.93-16.42-3.25s-9.07,10-7.7,17.35a294.7,294.7,0,0,0,7.86,31.23c4.54,15,9.72,29.75,11.36,45.62,1.06,10.13,1,20.2-1.86,30a6.63,6.63,0,0,0,1.35,6.76c5.56,7.16,8.36,15.8,9.8,25,7.57,48.6-23.24,76.44-54.38,82-24.27,4.31-44.74-5.39-63.54-21.28-.86-.72-1.7-1.49-2.56-2.22a11.69,11.69,0,0,0-1.36-.57c2.61,4.64,4.64,8.61,7,12.34C375.39,382.66,385.6,399,396,415.18c10.34,16,23.77,28.44,38.06,39.85C447.42,465.68,461.3,475.83,471,491c16.55,25.95,22.88,54.32,12.85,85.09-6.69,20.5-19.68,33.38-40.23,34.43-26.28,1.34-52.39-24.47-54.67-53.68-.69-8.82-.54-17.46,2.32-25.85,5.85-17.22,23.73-22.37,36.36-10.4,3.25,3.08,5.31,7,4.66,11.87-.16,1.22-1.42,2.26-2.18,3.38-.8-.85-2-1.55-2.35-2.59-2.23-6.31-6.77-7.65-12.17-7.54s-9.5,3-11.46,8.49c-3.93,11.07-3.74,22.47,1.24,32.86,6.21,13,16.26,21.41,29.24,24.72,17.55,4.47,31.58-5.83,35.69-27.17,6.17-32-4.12-57.69-26.48-77.9a136.64,136.64,0,0,0-15.79-12,182,182,0,0,1-49.84-50.05c-.79-1.16-1.67-2.24-3.16-4.22.91,7.3,1.84,13.46,2.42,19.67,3.41,36.75-2.21,72.21-13.68,106.51-3.16,9.45-3.52,17.63-.74,27.18,7,24,6.51,48.74,3.67,73.47a369.56,369.56,0,0,1-26.88,102.92c-4.27,10.06-9.54,19.61-14.53,29.28-1.22,2.36-3.15,4.27-4.75,6.4l-1.23-.68c.72-3.08,1.35-6.18,2.17-9.22,6.25-23.23,13.25-46.25,18.66-69.73a352.94,352.94,0,0,0,8.94-95.48c-.17-3.75-.62-7.5-1.1-11.23C347.59,596.7,347,593.93,346.31,590.27Zm-85.85-58.5c6.27-18.26,10.91-36.94,12.84-56.35,3-29.82,6-59.64,8.58-89.5,1.31-15.24,1.71-30.58,2.52-45.87-15,31-26.34,63.39-31.2,98.21C248.77,470,252.58,501,260.46,531.77Zm67.27-191.36c0,1.46-.09,2.92,0,4.37,2,29.75,3.43,59.57,6.23,89.24,2.22,23.49,6,46.8,9.37,70.16.67,4.72,2.21,9.3,3.48,13.9s2.71,9.12,4.23,14.22C371.05,463.77,356.3,401.11,327.73,340.41Zm38.18-11.18c-.12.4-.23.79-.34,1.18,6.65,5.38,13.37,10.65,19.93,16.18,12.66,10.67,26.85,12.82,42.06,9.76,18.86-3.8,32.05-15.13,37.42-36,3.14-12.18,2.58-24.31-3.4-36.44C440.43,327.75,408.7,343,365.91,329.23Zm-215.6-45.11c-4.82,9-6.4,20.71-4.55,31.41C149.63,338,163.92,353,185,356.45c10.85,1.8,21.93,2.73,31.72-3.72,9.52-6.28,18.3-13.92,27.38-21a17.38,17.38,0,0,0,2.12-2.59C203,342.8,171.37,327.78,150.31,284.12Zm126.84-14.43c-.06-3.83-3.11-7.19-6.54-7.2-3.59,0-6.62,3.59-6.46,7.69s3.06,7,6.7,6.84S277.22,273.64,277.15,269.69Zm70.42-.06c-.09-4.05-2.92-7.12-6.51-7.06s-6.49,3.41-6.48,7.22c0,4.11,3.07,7.32,6.83,7.18S347.65,273.75,347.57,269.63Z" transform="translate(-123.37 -6.11)"/></g></svg>